<?xml version="1.0" encoding="UTF-8" standalone="no"?>
<!DOCTYPE svg PUBLIC "-//W3C//DTD SVG 1.1//EN"
 "http://www.w3.org/Graphics/SVG/1.1/DTD/svg11.dtd">
<!-- Generated by graphviz version 14.1.5 (20260411.2331)
 -->
<!-- Title: G Pages: 1 -->
<svg width="1259pt" height="1628pt"
 viewBox="0.00 0.00 1259.00 1628.00" xmlns="http://www.w3.org/2000/svg" xmlns:xlink="http://www.w3.org/1999/xlink">
<g id="graph0" class="graph" transform="scale(2.77778 2.77778) rotate(0) translate(28.8 557.15)">
<title>G</title>
<polygon fill="white" stroke="none" points="-28.8,28.8 -28.8,-557.15 424.33,-557.15 424.33,28.8 -28.8,28.8"/>
<!-- inp -->
<g id="node1" class="node">
<title>inp</title>
<path fill="#eff6ff" stroke="#3b82f6" stroke-width="1.5" d="M253.41,-528.35C253.41,-528.35 152.12,-528.35 152.12,-528.35 146.12,-528.35 140.12,-522.35 140.12,-516.35 140.12,-516.35 140.12,-504.35 140.12,-504.35 140.12,-498.35 146.12,-492.35 152.12,-492.35 152.12,-492.35 253.4,-492.35 253.4,-492.35 259.4,-492.35 265.4,-498.35 265.4,-504.35 265.4,-504.35 265.4,-516.35 265.4,-516.35 265.4,-522.35 259.4,-528.35 253.41,-528.35"/>
<text xml:space="preserve" text-anchor="middle" x="202.76" y="-507.2" font-family="Microsoft YaHei" font-size="12.00">PyTorch &#160;→ &#160;ONNX</text>
</g>
<!-- linalg -->
<g id="node2" class="node">
<title>linalg</title>
<path fill="#f0fdf4" stroke="#16a34a" stroke-width="1.5" d="M281.15,-452.35C281.15,-452.35 124.38,-452.35 124.38,-452.35 118.38,-452.35 112.37,-446.35 112.37,-440.35 112.37,-440.35 112.37,-422.83 112.37,-422.83 112.37,-416.83 118.37,-410.83 124.37,-410.83 124.37,-410.83 281.15,-410.83 281.15,-410.83 287.15,-410.83 293.15,-416.83 293.15,-422.83 293.15,-422.83 293.15,-440.35 293.15,-440.35 293.15,-446.35 287.15,-452.35 281.15,-452.35"/>
<text xml:space="preserve" text-anchor="middle" x="202.76" y="-436.14" font-family="Microsoft YaHei" font-size="11.00">linalg &#160;统一中间表示</text>
<text xml:space="preserve" text-anchor="middle" x="202.76" y="-421.14" font-family="Microsoft YaHei" font-size="11.00">MatMul · Conv · ReLU · Softmax</text>
</g>
<!-- inp&#45;&gt;linalg -->
<g id="edge1" class="edge">
<title>inp&#45;&gt;linalg</title>
<path fill="none" stroke="#64748b" d="M202.76,-491.93C202.76,-483.78 202.76,-473.82 202.76,-464.39"/>
<polygon fill="#64748b" stroke="#64748b" points="206.27,-464.44 202.77,-454.44 199.27,-464.44 206.27,-464.44"/>
<text xml:space="preserve" text-anchor="middle" x="176.14" y="-481.81" font-family="Microsoft YaHei" font-size="8.00">OnnxToLinalg</text>
</g>
<!-- minidl -->
<g id="node3" class="node">
<title>minidl</title>
<path fill="#f0fdf4" stroke="#16a34a" stroke-width="1.5" d="M178.28,-370.83C178.28,-370.83 13.25,-370.83 13.25,-370.83 7.25,-370.83 1.25,-364.83 1.25,-358.83 1.25,-358.83 1.25,-314.31 1.25,-314.31 1.25,-308.31 7.25,-302.31 13.25,-302.31 13.25,-302.31 178.28,-302.31 178.28,-302.31 184.28,-302.31 190.28,-308.31 190.28,-314.31 190.28,-314.31 190.28,-358.83 190.28,-358.83 190.28,-364.83 184.28,-370.83 178.28,-370.83"/>
<text xml:space="preserve" text-anchor="middle" x="95.76" y="-355.57" font-family="Microsoft YaHei" font-size="10.00">mini&#45;dl&#45;compiler</text>
<text xml:space="preserve" text-anchor="middle" x="95.76" y="-341.32" font-family="Microsoft YaHei" font-size="10.00">Fold → Fuse → DCE → Tiling → SSA</text>
<text xml:space="preserve" text-anchor="middle" x="95.76" y="-327.07" font-family="Microsoft YaHei" font-size="10.00">──────────────</text>
<text xml:space="preserve" text-anchor="middle" x="95.76" y="-312.82" font-family="Microsoft YaHei" font-size="10.00">97 项测试 全部通过</text>
</g>
<!-- linalg&#45;&gt;minidl -->
<g id="edge2" class="edge">
<title>linalg&#45;&gt;minidl</title>
<path fill="none" stroke="#64748b" d="M179.28,-410.18C168.69,-400.96 155.77,-389.73 143.29,-378.88"/>
<polygon fill="#64748b" stroke="#64748b" points="145.74,-376.38 135.89,-372.46 141.14,-381.66 145.74,-376.38"/>
<text xml:space="preserve" text-anchor="middle" x="144.79" y="-398.18" font-family="Microsoft YaHei" font-size="8.00">优化降级</text>
</g>
<!-- softstack -->
<g id="node4" class="node">
<title>softstack</title>
<path fill="#f0fdf4" stroke="#16a34a" stroke-width="1.5" d="M383.53,-370.83C383.53,-370.83 238,-370.83 238,-370.83 232,-370.83 226,-364.83 226,-358.83 226,-358.83 226,-314.31 226,-314.31 226,-308.31 232,-302.31 238,-302.31 238,-302.31 383.53,-302.31 383.53,-302.31 389.53,-302.31 395.53,-308.31 395.53,-314.31 395.53,-314.31 395.53,-358.83 395.53,-358.83 395.53,-364.83 389.53,-370.83 383.53,-370.83"/>
<text xml:space="preserve" text-anchor="middle" x="310.76" y="-355.57" font-family="Microsoft YaHei" font-size="10.00">NPU_Soft_Hard_Stack</text>
<text xml:space="preserve" text-anchor="middle" x="310.76" y="-341.32" font-family="Microsoft YaHei" font-size="10.00">AST → TaskGraph → CPU / NPU</text>
<text xml:space="preserve" text-anchor="middle" x="310.76" y="-327.07" font-family="Microsoft YaHei" font-size="10.00">──────────────</text>
<text xml:space="preserve" text-anchor="middle" x="310.76" y="-312.82" font-family="Microsoft YaHei" font-size="10.00">23 项测试 全部通过</text>
</g>
<!-- linalg&#45;&gt;softstack -->
<g id="edge3" class="edge">
<title>linalg&#45;&gt;softstack</title>
<path fill="none" stroke="#64748b" d="M226.47,-410.18C237.16,-400.96 250.2,-389.73 262.8,-378.88"/>
<polygon fill="#64748b" stroke="#64748b" points="264.97,-381.63 270.27,-372.45 260.41,-376.32 264.97,-381.63"/>
<text xml:space="preserve" text-anchor="middle" x="228.13" y="-398.18" font-family="Microsoft YaHei" font-size="8.00">编译映射</text>
</g>
<!-- isa -->
<g id="node5" class="node">
<title>isa</title>
<path fill="#fffbeb" stroke="#b45309" stroke-width="2.5" d="M302.15,-262.31C302.15,-262.31 103.38,-262.31 103.38,-262.31 97.38,-262.31 91.37,-256.31 91.37,-250.31 91.37,-250.31 91.37,-217.79 91.37,-217.79 91.37,-211.79 97.37,-205.79 103.37,-205.79 103.37,-205.79 302.15,-205.79 302.15,-205.79 308.15,-205.79 314.15,-211.79 314.15,-217.79 314.15,-217.79 314.15,-250.31 314.15,-250.31 314.15,-256.31 308.15,-262.31 302.15,-262.31"/>
<text xml:space="preserve" text-anchor="middle" x="202.76" y="-246.1" font-family="Microsoft YaHei" font-size="11.00">ISA Mapper &#160;软硬接驳</text>
<text xml:space="preserve" text-anchor="middle" x="202.76" y="-231.1" font-family="Microsoft YaHei" font-size="11.00">isa.py &#160;←──→ &#160;isa_defines.vh</text>
<text xml:space="preserve" text-anchor="middle" x="202.76" y="-216.1" font-family="Microsoft YaHei" font-size="11.00">Tiler · Scheduler · Assembler · Simulator</text>
</g>
<!-- minidl&#45;&gt;isa -->
<g id="edge4" class="edge">
<title>minidl&#45;&gt;isa</title>
<path fill="none" stroke="#64748b" d="M131.69,-301.82C142.14,-292.01 153.58,-281.25 164.18,-271.3"/>
<polygon fill="#64748b" stroke="#64748b" points="166.47,-273.95 171.36,-264.55 161.68,-268.85 166.47,-273.95"/>
<text xml:space="preserve" text-anchor="middle" x="137.44" y="-290.21" font-family="Microsoft YaHei" font-size="8.00">lower</text>
</g>
<!-- softstack&#45;&gt;isa -->
<g id="edge5" class="edge">
<title>softstack&#45;&gt;isa</title>
<path fill="none" stroke="#64748b" d="M274.5,-301.82C263.96,-292.01 252.41,-281.25 241.71,-271.3"/>
<polygon fill="#64748b" stroke="#64748b" points="244.16,-268.8 234.45,-264.54 239.39,-273.92 244.16,-268.8"/>
<text xml:space="preserve" text-anchor="middle" x="249.48" y="-290.21" font-family="Microsoft YaHei" font-size="8.00">map</text>
</g>
<!-- npu_isa -->
<g id="node6" class="node">
<title>npu_isa</title>
<path fill="#fef2f2" stroke="#dc2626" stroke-width="1.5" d="M173.65,-165.79C173.65,-165.79 31.88,-165.79 31.88,-165.79 25.88,-165.79 19.87,-159.79 19.87,-153.79 19.87,-153.79 19.87,-123.52 19.87,-123.52 19.87,-117.52 25.87,-111.52 31.87,-111.52 31.87,-111.52 173.65,-111.52 173.65,-111.52 179.65,-111.52 185.65,-117.52 185.65,-123.52 185.65,-123.52 185.65,-153.79 185.65,-153.79 185.65,-159.79 179.65,-165.79 173.65,-165.79"/>
<text xml:space="preserve" text-anchor="middle" x="102.76" y="-150.53" font-family="Microsoft YaHei" font-size="10.00">NPU 指令流 &#160;7 条指令 &#160;32 位编码</text>
<text xml:space="preserve" text-anchor="middle" x="102.76" y="-136.28" font-family="Microsoft YaHei" font-size="10.00">load · store · compute</text>
<text xml:space="preserve" text-anchor="middle" x="102.76" y="-122.03" font-family="Microsoft YaHei" font-size="10.00">barrier · config · loop</text>
</g>
<!-- isa&#45;&gt;npu_isa -->
<g id="edge6" class="edge">
<title>isa&#45;&gt;npu_isa</title>
<path fill="none" stroke="#64748b" d="M172.49,-204.77C162.05,-195.02 150.23,-183.99 139.34,-173.81"/>
<polygon fill="#64748b" stroke="#64748b" points="142.03,-171.54 132.33,-167.27 137.25,-176.65 142.03,-171.54"/>
<text xml:space="preserve" text-anchor="middle" x="147.67" y="-192.94" font-family="Microsoft YaHei" font-size="8.00">汇编</text>
</g>
<!-- rvv -->
<g id="node7" class="node">
<title>rvv</title>
<path fill="#fef2f2" stroke="#dc2626" stroke-width="1.5" d="M371.4,-165.79C371.4,-165.79 234.12,-165.79 234.12,-165.79 228.12,-165.79 222.12,-159.79 222.12,-153.79 222.12,-153.79 222.12,-123.52 222.12,-123.52 222.12,-117.52 228.12,-111.52 234.12,-111.52 234.12,-111.52 371.4,-111.52 371.4,-111.52 377.4,-111.52 383.4,-117.52 383.4,-123.52 383.4,-123.52 383.4,-153.79 383.4,-153.79 383.4,-159.79 377.4,-165.79 371.4,-165.79"/>
<text xml:space="preserve" text-anchor="middle" x="302.76" y="-150.53" font-family="Microsoft YaHei" font-size="10.00">RISC&#45;V Vector</text>
<text xml:space="preserve" text-anchor="middle" x="302.76" y="-136.28" font-family="Microsoft YaHei" font-size="10.00">RVV v1.0 &#160;VLEN=256</text>
<text xml:space="preserve" text-anchor="middle" x="302.76" y="-122.03" font-family="Microsoft YaHei" font-size="10.00">vsetvli · vle32 · vfmacc · vfmax</text>
</g>
<!-- isa&#45;&gt;rvv -->
<g id="edge7" class="edge">
<title>isa&#45;&gt;rvv</title>
<path fill="none" stroke="#64748b" d="M233.04,-204.77C243.48,-195.02 255.3,-183.99 266.19,-173.81"/>
<polygon fill="#64748b" stroke="#64748b" points="268.28,-176.65 273.2,-167.27 263.5,-171.54 268.28,-176.65"/>
<text xml:space="preserve" text-anchor="middle" x="233.11" y="-192.94" font-family="Microsoft YaHei" font-size="8.00">代码生成</text>
</g>
<!-- npu_hw -->
<g id="node8" class="node">
<title>npu_hw</title>
<path fill="#fef2f2" stroke="#991b1b" stroke-width="3" d="M193.53,-71.52C193.53,-71.52 12,-71.52 12,-71.52 6,-71.52 0,-65.52 0,-59.52 0,-59.52 0,-12 0,-12 0,-6 6,0 12,0 12,0 193.53,0 193.53,0 199.53,0 205.53,-6 205.53,-12 205.53,-12 205.53,-59.52 205.53,-59.52 205.53,-65.52 199.53,-71.52 193.53,-71.52"/>
<text xml:space="preserve" text-anchor="middle" x="102.76" y="-55.31" font-family="Microsoft YaHei" font-size="11.00">NPU 硬件 &#160;Verilog RTL</text>
<text xml:space="preserve" text-anchor="middle" x="102.76" y="-40.31" font-family="Microsoft YaHei" font-size="11.00">DMA · 多 Bank SRAM · 4×4 脉动阵列</text>
<text xml:space="preserve" text-anchor="middle" x="102.76" y="-25.31" font-family="Microsoft YaHei" font-size="11.00">Decoder · BARRIER 同步</text>
<text xml:space="preserve" text-anchor="middle" x="102.76" y="-10.31" font-family="Microsoft YaHei" font-size="11.00">iverilog 仿真 — TEST PASSED</text>
</g>
<!-- npu_isa&#45;&gt;npu_hw -->
<g id="edge8" class="edge">
<title>npu_isa&#45;&gt;npu_hw</title>
<path fill="none" stroke="#64748b" d="M102.76,-110.88C102.76,-102.67 102.76,-93.38 102.76,-84.22"/>
<polygon fill="#64748b" stroke="#64748b" points="106.27,-84.29 102.77,-74.29 99.27,-84.29 106.27,-84.29"/>
<text xml:space="preserve" text-anchor="middle" x="94.51" y="-101.2" font-family="Microsoft YaHei" font-size="8.00">执行</text>
</g>
</g>
</svg>
